<?xml version="1.0" standalone="no"?>
<!DOCTYPE svg PUBLIC "-//W3C//DTD SVG 20010904//EN"
 "http://www.w3.org/TR/2001/REC-SVG-20010904/DTD/svg10.dtd">
<svg version="1.0" xmlns="http://www.w3.org/2000/svg"
 width="500.000000pt" height="500.000000pt" viewBox="0 0 500.000000 500.000000"
 preserveAspectRatio="xMidYMid meet">
<metadata>
Created by potrace 1.14, written by Peter Selinger 2001-2017
</metadata>
<g transform="translate(0.000000,500.000000) scale(0.100000,-0.100000)"
fill="#000000" stroke="none">
<path d="M2333 4109 c-180 -22 -419 -113 -548 -208 -27 -20 -61 -44 -75 -53
-61 -40 -212 -202 -282 -304 -89 -129 -172 -340 -198 -502 -20 -124 -14 -326
13 -447 21 -91 45 -164 80 -245 168 -391 547 -690 966 -765 97 -17 295 -20
408 -5 253 34 515 170 712 369 126 128 203 246 296 456 14 32 43 126 50 166 3
13 10 49 17 79 18 86 15 320 -6 420 -78 374 -295 681 -619 874 -122 73 -244
118 -417 156 -65 14 -309 20 -397 9z m332 -43 c215 -21 454 -129 645 -289 92
-78 214 -225 275 -334 42 -74 110 -242 101 -250 -2 -2 -17 34 -34 79 -74 195
-249 410 -447 548 -62 43 -232 126 -307 150 -37 12 -107 30 -155 40 -162 33
-455 13 -568 -39 -11 -5 -49 -22 -85 -37 -147 -63 -237 -129 -392 -288 -81
-83 -149 -148 -152 -145 -9 9 43 109 81 157 137 170 292 281 501 356 154 55
331 72 537 52z m90 -191 c33 -9 68 -17 77 -20 78 -18 241 -125 340 -221 128
-124 248 -362 263 -524 4 -36 9 -68 11 -72 3 -5 1 -8 -3 -8 -5 0 -14 30 -21
68 -27 161 -225 458 -372 559 -14 9 -27 20 -30 24 -11 14 -135 89 -204 123
-40 20 -103 45 -139 56 -37 12 -67 23 -67 25 0 10 88 4 145 -10z m-90 -49
c240 -69 457 -221 583 -409 128 -188 182 -361 176 -558 -2 -76 -32 -225 -53
-267 -5 -9 -26 -51 -46 -92 -21 -41 -64 -111 -96 -156 -56 -77 -80 -102 -202
-208 -55 -47 -72 -76 -43 -76 23 0 197 128 244 178 153 166 226 303 268 500
24 116 18 327 -12 448 -4 13 -4 24 -1 24 7 0 34 -120 44 -191 12 -92 7 -250
-11 -329 -49 -211 -191 -436 -351 -555 -22 -17 -42 -33 -45 -36 -11 -13 -120
-78 -162 -97 -250 -110 -662 -129 -756 -35 -14 14 -60 41 -101 60 -42 19 -120
64 -174 100 -256 170 -389 411 -388 705 1 202 77 386 239 577 45 53 163 153
232 196 105 66 328 130 503 144 14 2 7 29 -9 35 -8 3 -70 4 -137 2 -104 -2
-136 -8 -217 -34 -145 -48 -259 -119 -363 -225 -140 -142 -199 -240 -244 -404
-23 -86 -27 -116 -27 -248 0 -132 4 -162 27 -248 25 -91 79 -224 95 -237 4 -3
15 -22 26 -42 46 -92 213 -288 284 -336 16 -10 20 -17 11 -23 -15 -9 -63 7
-109 37 -50 31 -191 180 -232 244 -63 100 -131 266 -153 375 -20 101 -26 292
-12 385 20 128 89 307 161 415 63 96 199 223 301 283 91 53 243 109 325 119
25 3 47 7 48 8 2 2 68 2 145 0 116 -3 159 -8 232 -29z m-1239 -544 c-16 -30
-43 -121 -50 -167 -3 -16 -8 -50 -12 -75 -12 -80 -7 -285 11 -385 5 -28 4 -28
-5 -6 -17 40 -36 191 -34 270 3 80 19 196 36 251 15 49 56 140 63 140 3 0 -1
-12 -9 -28z m2051 -54 c-3 -8 -6 -5 -6 6 -1 11 2 17 5 13 3 -3 4 -12 1 -19z
m-1547 -1365 c128 -67 263 -113 327 -113 25 1 26 2 11 14 -10 7 -18 19 -18 25
0 7 8 10 18 7 84 -26 269 -59 339 -60 61 -1 62 -13 1 -21 -60 -9 -260 -9 -298
0 -14 3 -43 8 -65 12 -80 11 -234 74 -342 137 -60 36 -116 73 -124 82 -8 11 0
8 21 -7 19 -14 78 -48 130 -76z"/>
<path d="M1971 3049 c-104 -20 -154 -63 -172 -149 -13 -61 -68 -259 -77 -277
-12 -25 -14 -196 -2 -227 6 -16 17 -26 30 -26 11 0 20 -5 20 -11 0 -5 4 -7 10
-4 5 3 12 -6 16 -20 12 -50 130 -102 248 -109 63 -4 175 29 261 77 26 15 53
27 59 27 7 0 30 8 52 19 21 10 54 21 73 25 42 8 219 92 246 116 11 10 33 21
48 24 16 3 34 9 40 14 7 5 29 15 49 21 20 7 52 22 70 34 18 12 69 37 113 56
44 19 99 42 122 51 41 18 41 18 45 78 1 33 2 66 0 74 -6 31 -121 70 -272 92
-51 8 -261 45 -365 64 -49 9 -108 17 -130 17 -22 0 -42 3 -45 6 -3 4 -39 10
-80 14 -41 4 -78 9 -82 11 -15 9 -234 11 -277 3z"/>
<path d="M1909 1416 c-5 -59 -2 -366 4 -367 9 -2 33 -2 51 0 11 1 13 14 11 50
-4 67 4 76 71 76 55 1 57 0 98 -48 68 -81 70 -83 106 -82 18 0 35 5 36 10 2 6
-17 33 -41 60 l-45 50 29 12 c47 20 61 49 61 128 0 64 -3 74 -26 96 -25 23
-31 24 -190 25 -116 1 -164 -2 -165 -10z m307 -112 c1 -43 -3 -54 -15 -55 -20
-1 -179 -1 -207 0 -18 1 -20 7 -18 54 1 28 2 52 3 52 0 0 54 1 119 1 l117 2 1
-54z"/>
<path d="M2393 1419 c-32 -12 -44 -35 -46 -93 -4 -70 13 -113 47 -122 14 -3
78 -7 143 -7 l118 -2 0 -37 c1 -28 -3 -38 -15 -39 -21 -1 -202 -1 -217 0 -7 1
-13 8 -13 16 0 10 -10 15 -30 15 -16 0 -30 -3 -31 -7 0 -5 -2 -15 -4 -24 -1
-9 7 -29 20 -45 l22 -28 148 0 147 -1 24 28 c20 24 24 38 23 89 -1 52 -6 65
-27 85 -23 22 -33 23 -158 23 l-134 0 0 40 c0 22 3 41 8 41 4 1 58 2 120 3 79
1 112 -2 112 -10 0 -15 22 -24 46 -19 11 2 22 4 27 4 15 2 6 41 -17 67 -23 28
-24 28 -159 29 -74 0 -144 -2 -154 -6z"/>
<path d="M2831 1419 c-34 -13 -43 -47 -43 -148 2 -253 -2 -226 31 -227 34 -2
39 10 35 79 l-3 47 123 0 123 0 2 -57 c3 -68 6 -74 34 -69 12 3 25 5 30 5 12
1 8 307 -5 335 -6 14 -20 29 -32 33 -29 9 -270 11 -295 2z m265 -122 l0 -57
-120 3 -121 2 0 50 c-1 28 3 52 7 55 4 3 58 6 120 5 l113 0 1 -58z"/>
<path d="M939 782 c-1 -4 -2 -89 -3 -189 -1 -118 2 -184 9 -185 55 -8 62 1 60
67 -2 34 2 55 9 56 6 1 35 2 64 4 l53 2 55 -67 c49 -59 59 -66 89 -65 19 0 37
4 41 8 4 4 -11 28 -33 54 -53 64 -55 69 -31 70 11 1 31 12 44 24 21 19 24 32
24 90 0 77 -11 113 -37 124 -22 10 -343 16 -344 7z m310 -117 c1 -39 -2 -55
-11 -56 -19 -1 -201 -1 -218 0 -12 1 -16 14 -15 56 l0 55 121 0 121 0 2 -55z"/>
<path d="M1403 764 l-27 -21 -1 -167 c0 -108 3 -167 10 -168 32 -4 41 -3 53 6
7 5 12 21 12 35 -1 14 -2 38 -1 54 l1 27 120 0 120 0 0 -60 c0 -33 3 -60 8
-61 4 0 15 -2 26 -4 39 -7 41 1 40 153 -1 82 -4 160 -8 175 -10 43 -39 51
-188 52 -127 1 -140 -1 -165 -21z m287 -105 l0 -58 -117 1 -118 1 -5 36 c-12
80 -12 79 121 79 l119 0 0 -59z"/>
<path d="M1820 599 c0 -119 4 -189 10 -190 6 -1 16 -2 23 -3 36 -6 39 7 40
187 0 97 -2 179 -6 183 -3 3 -20 8 -37 9 l-30 3 0 -189z"/>
<path d="M1940 597 l0 -192 192 0 192 0 -1 28 c-1 15 -1 31 -2 35 -1 5 -70 9
-153 9 l-153 -1 -3 157 -3 157 -34 0 -35 0 0 -193z"/>
<path d="M2286 770 c22 -53 98 -264 111 -307 16 -52 35 -69 65 -58 8 3 36 64
63 135 26 72 49 130 50 130 1 0 21 -53 44 -117 49 -140 50 -142 83 -148 24 -5
28 0 53 68 40 108 105 296 105 305 0 5 -14 8 -31 7 -32 -1 -48 -25 -79 -120
-7 -22 -22 -60 -32 -85 l-20 -45 -28 82 c-52 150 -63 168 -98 168 -30 1 -32
-2 -66 -90 -19 -50 -38 -104 -41 -118 -4 -15 -11 -29 -15 -32 -7 -4 -39 75
-55 135 -6 25 -20 61 -35 90 -10 21 -83 21 -74 0z"/>
<path d="M2935 773 c-13 -8 -28 -25 -31 -39 -9 -36 -9 -308 0 -322 4 -6 17
-10 29 -8 12 3 25 5 30 5 4 1 7 28 7 61 l0 60 120 0 120 0 0 -63 0 -63 33 1
32 1 3 144 c3 172 -1 206 -31 222 -32 17 -279 18 -312 1z m275 -113 l0 -57
-120 -1 -120 -1 0 59 0 58 120 0 120 0 0 -58z"/>
<path d="M3325 780 c-3 -4 13 -30 34 -56 21 -27 59 -79 85 -116 43 -63 46 -71
46 -131 0 -67 7 -79 46 -73 16 2 20 14 24 77 5 80 -3 65 132 245 21 28 38 53
38 56 0 3 -17 5 -37 4 -35 -1 -44 -8 -102 -78 -35 -43 -65 -78 -67 -78 -5 0
-101 117 -112 136 -10 17 -78 28 -87 14z"/>
<path d="M3811 779 c-36 -14 -52 -52 -50 -115 2 -46 8 -64 25 -81 25 -25 30
-25 187 -25 l97 0 0 -39 c0 -24 -5 -39 -12 -40 -15 -1 -209 -1 -220 0 -5 1 -7
7 -5 14 1 7 -12 13 -35 15 -35 3 -38 1 -38 -22 0 -14 11 -37 24 -53 l24 -28
146 0 c181 1 187 5 189 110 1 62 -1 69 -27 91 -25 23 -35 24 -155 24 l-127 0
0 43 0 44 118 0 c94 0 118 -2 118 -13 0 -8 3 -14 8 -15 40 -5 64 -5 68 2 7 11
-21 75 -37 85 -17 10 -271 12 -298 3z"/>
</g>
</svg>
